<svg width="551" height="551" viewBox="0 0 551 551" fill="none" xmlns="http://www.w3.org/2000/svg">
<path fill-rule="evenodd" clip-rule="evenodd" d="M303.759 1.27284C367.434 5.18815 427.129 36.5106 470.906 79.5791C522.642 134.393 550.5 200.954 550.5 279.26C550.5 341.905 526.622 400.635 486.825 451.534C447.028 498.517 391.312 533.755 327.637 545.501C263.962 557.247 200.286 549.416 144.571 518.094C88.8549 486.771 45.0782 439.788 21.2 381.058C-2.67822 322.328 -6.65793 255.768 13.2406 197.038C33.1391 134.393 68.9564 83.4944 124.672 48.2566C176.408 13.0188 240.083 -2.64247 303.759 1.27284ZM275.901 255.768L371.414 157.885L399.271 185.292L303.759 283.175L399.271 381.058L371.414 408.465L275.901 310.582L180.388 408.465L152.53 381.058L248.043 283.175L152.53 185.292L180.388 157.885L275.901 255.768Z" fill="#DB187A"/>
</svg>