<svg width="14" height="14" viewBox="0 0 14 14" fill="none" xmlns="http://www.w3.org/2000/svg">
<path fill-rule="evenodd" clip-rule="evenodd" d="M6.99337 0.333328C3.31337 0.333328 0.333374 3.31999 0.333374 6.99999C0.333374 10.68 3.31337 13.6667 6.99337 13.6667C10.68 13.6667 13.6667 10.68 13.6667 6.99999C13.6667 3.31999 10.68 0.333328 6.99337 0.333328ZM7.66671 7.66666V3.66666H6.33337V7.66666H7.66671ZM7.66671 10.3333V9H6.33337V10.3333H7.66671ZM1.66671 7C1.66671 9.94666 4.05337 12.3333 7.00004 12.3333C9.94671 12.3333 12.3334 9.94666 12.3334 7C12.3334 4.05333 9.94671 1.66666 7.00004 1.66666C4.05337 1.66666 1.66671 4.05333 1.66671 7Z" fill="#6B0A0A"/>
</svg>
