<svg width="16" height="14" viewBox="0 0 16 14" fill="none" xmlns="http://www.w3.org/2000/svg">
<path fill-rule="evenodd" clip-rule="evenodd" d="M13.7066 5.14667L15.3333 7.00001L13.7066 8.85334L13.9333 11.3067L11.5266 11.8533L10.2666 13.9733L7.99996 13L5.73329 13.98L4.47329 11.86L2.06663 11.3133L2.29329 8.85334L0.666626 7.00001L2.29329 5.14001L2.06663 2.68667L4.47329 2.14667L5.73329 0.0266724L7.99996 1.00001L10.2666 0.0266724L11.5266 2.14667L13.9333 2.69334L13.7066 5.14667ZM12.5 10.2667L12.3266 8.40667L13.56 7.00001L12.3266 5.59334L12.5 3.73334L10.6733 3.32001L9.71996 1.71334L7.99996 2.45334L6.27996 1.72001L5.32663 3.32667L3.49996 3.73334L3.67329 5.58667L2.43996 7.00001L3.67329 8.40001L3.49996 10.2667L5.32663 10.68L6.27996 12.2867L7.99996 11.5467L9.71996 12.2867L10.6733 10.68L12.5 10.2667ZM8.66663 9.00001V10.3333H7.33329V9.00001H8.66663ZM8.66663 3.66667H7.33329V7.66667H8.66663V3.66667Z" fill="#053361"/>
</svg>
