<svg width="522" height="498" viewBox="0 0 522 498" fill="none" xmlns="http://www.w3.org/2000/svg">
<path fill-rule="evenodd" clip-rule="evenodd" d="M463.851 182.6L521.715 248.763L463.851 315.163L471.915 402.669L386.306 422.115L341.486 497.762L260.857 463.14L180.229 498L135.409 422.115L49.8 402.669L57.863 314.926L0 248.763L57.863 182.6L49.8 94.8573L135.409 75.6487L180.229 0L260.857 34.6228L341.486 0L386.306 75.6487L471.915 95.0942L463.851 182.6ZM414.763 299.274L428.042 283.86L458.398 248.763L427.807 213.903L414.525 198.489L416.424 178.331L420.693 132.088L375.634 121.892L355.714 117.386L345.28 99.8373L321.803 59.9973L279.591 78.2571L260.857 86.3201L241.886 78.2571L199.674 59.9973L176.197 99.8373L165.763 117.386L145.843 121.892L100.786 132.088L105.054 178.094L107.188 198.489L93.9086 213.903L63.3171 249L93.9086 283.86L107.188 299.274L105.291 319.431L101.023 365.913L146.08 376.107L166 380.614L176.434 398.162L199.911 437.767L242.123 419.505L260.857 411.444L279.829 419.505L322.04 437.767L345.517 397.927L355.953 380.376L375.873 375.873L420.927 365.674L416.659 319.431L414.763 299.274Z" fill="#206609"/>
<path d="M219.114 283.44L164.097 228.186L129 263.52L219.114 353.871L393.177 179.334L358.08 144L219.114 283.44Z" fill="#206609"/>
</svg>
